<svg width="683px" height="131.6px" xmlns="http://www.w3.org/2000/svg" viewBox="-91.49058837890624 9.200000000000003 682.9811767578125 131.6" style="background: rgba(0, 0, 0, 0)" preserveAspectRatio="xMidYMid"><defs><linearGradient id="editing-gradient-gradient" x1="0" x2="1" y1="0.5" y2="0.5" gradientUnits="objectBoundingBox"><stop offset="0" stop-color="#000000"></stop><stop offset="1" stop-color="#000000"></stop></linearGradient></defs><g><g transform="matrix(1.2,0,0,1.4,-30.1,-1009.7)"><path d="M 8.4 750.6 L 8.4 796.6 L 0.8 796.6 L 0.8 750.6 L 8.4 750.6 Z M 66.1 776.8 L 66.1 795.4 L 66.1 796.6 L 58.6 796.6 L 58.6 777.4 L 58.6 777.4 Q 58.6 775.3 58.5 773.4 L 58.5 773.4 L 58.5 773.4 Q 58.5 771.5 58.1 770 L 58.1 770 L 58.1 770 Q 57.8 768.5 56.9 767.7 L 56.9 767.7 L 56.9 767.7 Q 56.1 766.8 54.3 766.8 L 54.3 766.8 L 54.3 766.8 Q 54 766.8 53.2 766.9 L 53.2 766.9 L 53.2 766.9 Q 52.4 767 51.4 767.3 L 51.4 767.3 L 51.4 767.3 Q 50.3 767.6 49 768.2 L 49 768.2 L 49 768.2 Q 47.8 768.8 46.5 769.8 L 46.5 769.8 L 46.5 769.8 Q 46.5 772.3 46.5 773.7 L 46.5 773.7 L 46.5 773.7 Q 46.6 775.1 46.6 776.8 L 46.6 776.8 L 46.6 796.6 L 39 796.6 L 39 777.4 L 39 777.4 Q 39 775.3 39 773.4 L 39 773.4 L 39 773.4 Q 39 771.5 38.6 770 L 38.6 770 L 38.6 770 Q 38.3 768.5 37.4 767.7 L 37.4 767.7 L 37.4 767.7 Q 36.5 766.8 34.8 766.8 L 34.8 766.8 L 34.8 766.8 Q 34.3 766.8 33.3 767 L 33.3 767 L 33.3 767 Q 32.3 767.1 31.2 767.5 L 31.2 767.5 L 31.2 767.5 Q 30.1 767.9 29 768.4 L 29 768.4 L 29 768.4 Q 27.9 769 27.1 769.8 L 27.1 769.8 L 27.1 796.6 L 19.5 796.6 L 19.5 761.4 L 26.3 761.4 L 27.1 765 L 27.1 765 Q 28.7 763.6 31.2 762.4 L 31.2 762.4 L 31.2 762.4 Q 33.6 761.1 36.3 761.1 L 36.3 761.1 L 36.3 761.1 Q 39.3 761.1 41.3 762.4 L 41.3 762.4 L 41.3 762.4 Q 43.3 763.8 45.3 766.3 L 45.3 766.3 L 45.3 766.3 Q 46.4 765.1 47.7 764.1 L 47.7 764.1 L 47.7 764.1 Q 49 763.1 50.4 762.4 L 50.4 762.4 L 50.4 762.4 Q 51.8 761.8 53.2 761.4 L 53.2 761.4 L 53.2 761.4 Q 54.6 761 55.8 761 L 55.8 761 L 55.8 761 Q 57.9 761 59.8 761.9 L 59.8 761.9 L 59.8 761.9 Q 61.7 762.7 63.1 764.3 L 63.1 764.3 L 63.1 764.3 Q 64.5 765.8 65.3 768 L 65.3 768 L 65.3 768 Q 66.1 770.1 66.1 772.6 L 66.1 772.6 L 66.1 776.8 Z M 102.4 777.6 L 102.4 785.7 L 102.4 786.2 L 102.4 786.2 Q 102.4 786.7 102.4 787.7 L 102.4 787.7 L 102.4 787.7 Q 102.5 788.6 102.7 789.6 L 102.7 789.6 L 102.7 789.6 Q 102.9 790.6 103.3 791.4 L 103.3 791.4 L 103.3 791.4 Q 103.7 792.3 104.4 792.5 L 104.4 792.5 L 102.4 796.7 L 102.4 796.7 Q 101.6 796.7 100.7 796.3 L 100.7 796.3 L 100.7 796.3 Q 99.8 795.9 98.9 795.3 L 98.9 795.3 L 98.9 795.3 Q 98.1 794.6 97.5 793.7 L 97.5 793.7 L 97.5 793.7 Q 96.9 792.9 96.6 791.9 L 96.6 791.9 L 96.6 791.9 Q 96.1 792.9 95 793.9 L 95 793.9 L 95 793.9 Q 93.9 794.8 92.6 795.5 L 92.6 795.5 L 92.6 795.5 Q 91.2 796.2 89.6 796.6 L 89.6 796.6 L 89.6 796.6 Q 88 796.9 86.6 796.9 L 86.6 796.9 L 86.6 796.9 Q 84.5 796.9 82.5 796.4 L 82.5 796.4 L 82.5 796.4 Q 80.6 795.8 79.1 794.6 L 79.1 794.6 L 79.1 794.6 Q 77.6 793.3 76.7 791.3 L 76.7 791.3 L 76.7 791.3 Q 75.9 789.2 75.9 786.2 L 75.9 786.2 L 75.9 786.2 Q 75.9 783.3 77.1 781.2 L 77.1 781.2 L 77.1 781.2 Q 78.3 779.1 80.2 777.8 L 80.2 777.8 L 80.2 777.8 Q 82.1 776.4 84.6 775.8 L 84.6 775.8 L 84.6 775.8 Q 87 775.1 89.5 775.1 L 89.5 775.1 L 94.8 775.1 L 94.8 775.1 Q 94.8 772.1 94.5 770.3 L 94.5 770.3 L 94.5 770.3 Q 94.2 768.4 93.4 767.6 L 93.4 767.6 L 93.4 767.6 Q 92.7 766.8 91.6 766.5 L 91.6 766.5 L 91.6 766.5 Q 90.5 766.3 89 766.3 L 89 766.3 L 89 766.3 Q 87.6 766.3 86.4 766.7 L 86.4 766.7 L 86.4 766.7 Q 85.2 767 84.2 767.5 L 84.2 767.5 L 84.2 767.5 Q 83.1 767.9 82.3 768.5 L 82.3 768.5 L 82.3 768.5 Q 81.6 769.1 81.2 769.4 L 81.2 769.4 L 78.4 765.1 L 78.4 765.1 Q 79 764.4 80.3 763.7 L 80.3 763.7 L 80.3 763.7 Q 81.5 762.9 83.1 762.4 L 83.1 762.4 L 83.1 762.4 Q 84.8 761.8 86.7 761.5 L 86.7 761.5 L 86.7 761.5 Q 88.6 761.1 90.6 761.1 L 90.6 761.1 L 90.6 761.1 Q 92.5 761.1 94.3 761.5 L 94.3 761.5 L 94.3 761.5 Q 96.1 761.9 97.5 762.8 L 97.5 762.8 L 97.5 762.8 Q 99 763.6 100.1 765.1 L 100.1 765.1 L 100.1 765.1 Q 101.2 766.6 101.6 768.8 L 101.6 768.8 L 101.6 768.8 Q 102.1 770.9 102.2 773.2 L 102.2 773.2 L 102.2 773.2 Q 102.4 775.4 102.4 777.6 L 102.4 777.6 Z M 94.9 788.2 L 94.9 779.6 L 90.9 779.6 L 90.9 779.6 Q 89.6 779.6 88.3 779.8 L 88.3 779.8 L 88.3 779.8 Q 86.9 780.1 85.7 780.8 L 85.7 780.8 L 85.7 780.8 Q 84.5 781.4 83.7 782.7 L 83.7 782.7 L 83.7 782.7 Q 82.9 784 82.9 786 L 82.9 786 L 82.9 786 Q 82.9 789.1 84.3 790.5 L 84.3 790.5 L 84.3 790.5 Q 85.8 791.9 88.4 791.9 L 88.4 791.9 L 88.4 791.9 Q 90.3 791.9 92 790.9 L 92 790.9 L 92 790.9 Q 93.8 789.9 94.9 788.2 L 94.9 788.2 Z M 117.1 805.5 L 121.5 801.2 L 121.5 801.2 Q 122.1 802.3 123.1 802.9 L 123.1 802.9 L 123.1 802.9 Q 124.1 803.6 125.1 804 L 125.1 804 L 125.1 804 Q 126.1 804.4 127.2 804.5 L 127.2 804.5 L 127.2 804.5 Q 128.2 804.7 129 804.7 L 129 804.7 L 129 804.7 Q 132.9 804.7 135.1 802.4 L 135.1 802.4 L 135.1 802.4 Q 137.3 800.2 137.3 794.8 L 137.3 794.8 L 137.3 793.1 L 137.3 793 L 137.3 792.7 L 137.3 792.7 Q 137.3 792.6 137.3 792.6 L 137.3 792.6 L 137.3 792.6 Q 137.3 792.5 137.3 792.4 L 137.3 792.4 L 137.3 792.4 Q 137.1 793.3 136.2 794.1 L 136.2 794.1 L 136.2 794.1 Q 135.3 794.9 133.9 795.5 L 133.9 795.5 L 133.9 795.5 Q 132.5 796.2 130.8 796.6 L 130.8 796.6 L 130.8 796.6 Q 129 796.9 127.1 796.9 L 127.1 796.9 L 127.1 796.9 Q 123.6 796.9 121 795.4 L 121 795.4 L 121 795.4 Q 118.4 793.9 116.6 791.3 L 116.6 791.3 L 116.6 791.3 Q 114.9 788.8 114.1 785.4 L 114.1 785.4 L 114.1 785.4 Q 113.3 782.1 113.3 778.5 L 113.3 778.5 L 113.3 778.5 Q 113.3 773.6 114.6 770.3 L 114.6 770.3 L 114.6 770.3 Q 115.9 767 118 764.9 L 118 764.9 L 118 764.9 Q 120.1 762.8 122.7 761.9 L 122.7 761.9 L 122.7 761.9 Q 125.3 761.1 127.8 761.1 L 127.8 761.1 L 127.8 761.1 Q 130.9 761.1 133.4 762.1 L 133.4 762.1 L 133.4 762.1 Q 135.9 763.2 137.3 764.9 L 137.3 764.9 L 138.1 761.4 L 144.8 761.4 L 144.8 796.6 L 144.8 796.6 Q 144.5 800.4 143.2 803.1 L 143.2 803.1 L 143.2 803.1 Q 141.9 805.8 139.9 807.6 L 139.9 807.6 L 139.9 807.6 Q 137.9 809.3 135.3 810.1 L 135.3 810.1 L 135.3 810.1 Q 132.7 810.8 129.7 810.8 L 129.7 810.8 L 129.7 810.8 Q 126.2 810.8 122.8 809.6 L 122.8 809.6 L 122.8 809.6 Q 119.4 808.4 117.1 805.5 L 117.1 805.5 Z M 137.8 778.8 L 137.8 778.8 L 137.8 778.8 Q 137.8 776.3 137.1 774.1 L 137.1 774.1 L 137.1 774.1 Q 136.5 772 135.4 770.4 L 135.4 770.4 L 135.4 770.4 Q 134.4 768.8 132.8 767.8 L 132.8 767.8 L 132.8 767.8 Q 131.3 766.9 129.4 766.9 L 129.4 766.9 L 129.4 766.9 Q 127.6 766.9 126 767.9 L 126 767.9 L 126 767.9 Q 124.5 768.8 123.4 770.4 L 123.4 770.4 L 123.4 770.4 Q 122.4 772.1 121.8 774.3 L 121.8 774.3 L 121.8 774.3 Q 121.3 776.4 121.3 778.9 L 121.3 778.9 L 121.3 778.9 Q 121.3 781.4 121.8 783.6 L 121.8 783.6 L 121.8 783.6 Q 122.4 785.8 123.5 787.4 L 123.5 787.4 L 123.5 787.4 Q 124.6 789.1 126.2 790 L 126.2 790 L 126.2 790 Q 127.7 791 129.6 791 L 129.6 791 L 129.6 791 Q 131.5 791 133 790 L 133 790 L 133 790 Q 134.5 789.1 135.5 787.4 L 135.5 787.4 L 135.5 787.4 Q 136.6 785.8 137.2 783.5 L 137.2 783.5 L 137.2 783.5 Q 137.8 781.3 137.8 778.8 Z M 171.8 761 L 171.8 761 L 171.8 761 Q 176 761 179.3 762.7 L 179.3 762.7 L 179.3 762.7 Q 182.5 764.4 184.6 767.3 L 184.6 767.3 L 184.6 767.3 Q 186.7 770.1 187.6 773.9 L 187.6 773.9 L 187.6 773.9 Q 188.5 777.6 187.9 781.6 L 187.9 781.6 L 163.4 781.6 L 163.4 781.6 Q 163.4 783.6 164.2 785.3 L 164.2 785.3 L 164.2 785.3 Q 164.9 786.9 166.2 788.2 L 166.2 788.2 L 166.2 788.2 Q 167.5 789.4 169.3 790.1 L 169.3 790.1 L 169.3 790.1 Q 171.1 790.8 173.1 790.8 L 173.1 790.8 L 173.1 790.8 Q 173.8 790.8 174.8 790.6 L 174.8 790.6 L 174.8 790.6 Q 175.9 790.4 177 790 L 177 790 L 177 790 Q 178.2 789.6 179.3 789 L 179.3 789 L 179.3 789 Q 180.5 788.4 181.4 787.5 L 181.4 787.5 L 184.1 791.7 L 184.1 791.7 Q 182.1 794.3 179.3 795.6 L 179.3 795.6 L 179.3 795.6 Q 176.6 796.9 172.3 796.9 L 172.3 796.9 L 172.3 796.9 Q 168.9 796.9 165.9 795.5 L 165.9 795.5 L 165.9 795.5 Q 162.9 794.1 160.8 791.6 L 160.8 791.6 L 160.8 791.6 Q 158.6 789.2 157.4 785.9 L 157.4 785.9 L 157.4 785.9 Q 156.1 782.7 156.1 778.9 L 156.1 778.9 L 156.1 778.9 Q 156.1 775.3 157.4 772 L 157.4 772 L 157.4 772 Q 158.6 768.7 160.7 766.3 L 160.7 766.3 L 160.7 766.3 Q 162.8 763.8 165.7 762.4 L 165.7 762.4 L 165.7 762.4 Q 168.6 761 171.8 761 Z M 163.7 776.1 L 180.9 776.1 L 180.9 776.1 Q 180.9 774.4 180.3 772.8 L 180.3 772.8 L 180.3 772.8 Q 179.7 771.1 178.6 769.8 L 178.6 769.8 L 178.6 769.8 Q 177.5 768.5 175.9 767.7 L 175.9 767.7 L 175.9 767.7 Q 174.4 766.9 172.6 766.9 L 172.6 766.9 L 172.6 766.9 Q 170.6 766.9 169 767.6 L 169 767.6 L 169 767.6 Q 167.4 768.4 166.2 769.6 L 166.2 769.6 L 166.2 769.6 Q 165 770.9 164.3 772.6 L 164.3 772.6 L 164.3 772.6 Q 163.7 774.3 163.7 776.1 L 163.7 776.1 Z M 197.8 793.8 L 197.8 793.8 L 201 788.8 L 201 788.8 Q 202.3 789.6 204 790.4 L 204 790.4 L 204 790.4 Q 205.7 791.1 208.3 791.1 L 208.3 791.1 L 208.3 791.1 Q 211.8 791.1 213.7 790.1 L 213.7 790.1 L 213.7 790.1 Q 215.6 789 215.6 786.9 L 215.6 786.9 L 215.6 786.9 Q 215.6 785.4 214.5 784.5 L 214.5 784.5 L 214.5 784.5 Q 213.4 783.6 211.7 783 L 211.7 783 L 211.7 783 Q 209.9 782.3 208 781.7 L 208 781.7 L 208 781.7 Q 206 781.1 204.3 780.3 L 204.3 780.3 L 204.3 780.3 Q 201 778.5 199.3 776.6 L 199.3 776.6 L 199.3 776.6 Q 197.7 774.6 197.7 771.4 L 197.7 771.4 L 197.7 771.4 Q 197.7 768.8 198.8 766.8 L 198.8 766.8 L 198.8 766.8 Q 199.9 764.8 201.6 763.5 L 201.6 763.5 L 201.6 763.5 Q 203.4 762.1 205.6 761.4 L 205.6 761.4 L 205.6 761.4 Q 207.9 760.8 210.2 760.8 L 210.2 760.8 L 210.2 760.8 Q 213.3 760.8 215.9 761.4 L 215.9 761.4 L 215.9 761.4 Q 218.6 762.1 221 763.6 L 221 763.6 L 218.6 768.8 L 218.6 768.8 Q 216.7 767.8 214.5 767.4 L 214.5 767.4 L 214.5 767.4 Q 212.3 766.9 210.2 766.9 L 210.2 766.9 L 210.2 766.9 Q 207.9 766.9 206.5 768 L 206.5 768 L 206.5 768 Q 205.2 769 205.2 771.2 L 205.2 771.2 L 205.2 771.2 Q 205.2 772.9 206.4 773.9 L 206.4 773.9 L 206.4 773.9 Q 207.6 774.8 209.6 775.6 L 209.6 775.6 L 209.6 775.6 Q 211.5 776.3 213.7 777.1 L 213.7 777.1 L 213.7 777.1 Q 215.9 777.8 217.8 779 L 217.8 779 L 217.8 779 Q 219.7 780.1 220.9 781.9 L 220.9 781.9 L 220.9 781.9 Q 222.2 783.6 222.2 786.4 L 222.2 786.4 L 222.2 786.4 Q 222.2 789.1 221.1 791.1 L 221.1 791.1 L 221.1 791.1 Q 220.1 793.1 218.3 794.4 L 218.3 794.4 L 218.3 794.4 Q 216.4 795.7 214.1 796.3 L 214.1 796.3 L 214.1 796.3 Q 211.7 796.9 209 796.9 L 209 796.9 L 209 796.9 Q 207.4 796.9 206 796.9 L 206 796.9 L 206 796.9 Q 204.6 796.8 203.3 796.4 L 203.3 796.4 L 203.3 796.4 Q 202 796.1 200.7 795.5 L 200.7 795.5 L 200.7 795.5 Q 199.4 794.9 197.8 793.8 Z M 267.8 772.9 L 283.1 772.9 L 283.1 790.7 L 283.1 790.7 Q 281.6 792.5 279.8 793.7 L 279.8 793.7 L 279.8 793.7 Q 278.1 794.8 276.1 795.6 L 276.1 795.6 L 276.1 795.6 Q 274.1 796.3 272 796.6 L 272 796.6 L 272 796.6 Q 269.9 796.9 267.9 796.9 L 267.9 796.9 L 267.9 796.9 Q 263.8 796.9 260.3 795.4 L 260.3 795.4 L 260.3 795.4 Q 256.8 793.9 254.2 791 L 254.2 791 L 254.2 791 Q 251.6 788.1 250.2 783.6 L 250.2 783.6 L 250.2 783.6 Q 248.7 779.2 248.7 773.4 L 248.7 773.4 L 248.7 773.4 Q 248.7 767.6 250.2 763.2 L 250.2 763.2 L 250.2 763.2 Q 251.6 758.8 254.2 755.8 L 254.2 755.8 L 254.2 755.8 Q 256.8 752.9 260.3 751.4 L 260.3 751.4 L 260.3 751.4 Q 263.8 749.8 267.9 749.8 L 267.9 749.8 L 267.9 749.8 Q 271.6 749.8 274.9 751.1 L 274.9 751.1 L 274.9 751.1 Q 278.1 752.3 280.7 754.8 L 280.7 754.8 L 275.5 759.4 L 275.5 759.4 Q 274 757.6 272.1 756.8 L 272.1 756.8 L 272.1 756.8 Q 270.1 756 268.1 756 L 268.1 756 L 268.1 756 Q 265.8 756 263.7 756.9 L 263.7 756.9 L 263.7 756.9 Q 261.6 757.8 259.9 759.9 L 259.9 759.9 L 259.9 759.9 Q 258.3 761.9 257.3 765.3 L 257.3 765.3 L 257.3 765.3 Q 256.4 768.6 256.3 773.4 L 256.3 773.4 L 256.3 773.4 Q 256.4 778.1 257.3 781.5 L 257.3 781.5 L 257.3 781.5 Q 258.2 784.9 259.8 787.1 L 259.8 787.1 L 259.8 787.1 Q 261.4 789.3 263.4 790.4 L 263.4 790.4 L 263.4 790.4 Q 265.4 791.4 267.7 791.4 L 267.7 791.4 L 267.7 791.4 Q 268.4 791.4 269.5 791.4 L 269.5 791.4 L 269.5 791.4 Q 270.7 791.3 271.8 791 L 271.8 791 L 271.8 791 Q 273 790.8 274.1 790.4 L 274.1 790.4 L 274.1 790.4 Q 275.1 790.1 275.6 789.4 L 275.6 789.4 L 275.6 778 L 267.8 778 L 267.8 772.9 Z M 319.1 777.6 L 319.1 785.7 L 319.1 786.2 L 319.1 786.2 Q 319.1 786.7 319.1 787.7 L 319.1 787.7 L 319.1 787.7 Q 319.2 788.6 319.4 789.6 L 319.4 789.6 L 319.4 789.6 Q 319.6 790.6 320 791.4 L 320 791.4 L 320 791.4 Q 320.4 792.3 321.1 792.5 L 321.1 792.5 L 319.1 796.7 L 319.1 796.7 Q 318.3 796.7 317.3 796.3 L 317.3 796.3 L 317.3 796.3 Q 316.4 795.9 315.6 795.3 L 315.6 795.3 L 315.6 795.3 Q 314.8 794.6 314.2 793.7 L 314.2 793.7 L 314.2 793.7 Q 313.6 792.9 313.3 791.9 L 313.3 791.9 L 313.3 791.9 Q 312.8 792.9 311.7 793.9 L 311.7 793.9 L 311.7 793.9 Q 310.6 794.8 309.3 795.5 L 309.3 795.5 L 309.3 795.5 Q 307.9 796.2 306.3 796.6 L 306.3 796.6 L 306.3 796.6 Q 304.7 796.9 303.3 796.9 L 303.3 796.9 L 303.3 796.9 Q 301.2 796.9 299.2 796.4 L 299.2 796.4 L 299.2 796.4 Q 297.3 795.8 295.8 794.6 L 295.8 794.6 L 295.8 794.6 Q 294.3 793.3 293.4 791.3 L 293.4 791.3 L 293.4 791.3 Q 292.6 789.2 292.6 786.2 L 292.6 786.2 L 292.6 786.2 Q 292.6 783.3 293.8 781.2 L 293.8 781.2 L 293.8 781.2 Q 295 779.1 296.9 777.8 L 296.9 777.8 L 296.9 777.8 Q 298.8 776.4 301.3 775.8 L 301.3 775.8 L 301.3 775.8 Q 303.7 775.1 306.2 775.1 L 306.2 775.1 L 311.5 775.1 L 311.5 775.1 Q 311.5 772.1 311.2 770.3 L 311.2 770.3 L 311.2 770.3 Q 310.9 768.4 310.1 767.6 L 310.1 767.6 L 310.1 767.6 Q 309.4 766.8 308.3 766.5 L 308.3 766.5 L 308.3 766.5 Q 307.2 766.3 305.7 766.3 L 305.7 766.3 L 305.7 766.3 Q 304.3 766.3 303.1 766.7 L 303.1 766.7 L 303.1 766.7 Q 301.9 767 300.8 767.5 L 300.8 767.5 L 300.8 767.5 Q 299.8 767.9 299 768.5 L 299 768.5 L 299 768.5 Q 298.3 769.1 297.9 769.4 L 297.9 769.4 L 295.1 765.1 L 295.1 765.1 Q 295.7 764.4 296.9 763.7 L 296.9 763.7 L 296.9 763.7 Q 298.2 762.9 299.8 762.4 L 299.8 762.4 L 299.8 762.4 Q 301.4 761.8 303.3 761.5 L 303.3 761.5 L 303.3 761.5 Q 305.3 761.1 307.3 761.1 L 307.3 761.1 L 307.3 761.1 Q 309.2 761.1 311 761.5 L 311 761.5 L 311 761.5 Q 312.8 761.9 314.2 762.8 L 314.2 762.8 L 314.2 762.8 Q 315.7 763.6 316.8 765.1 L 316.8 765.1 L 316.8 765.1 Q 317.9 766.6 318.3 768.8 L 318.3 768.8 L 318.3 768.8 Q 318.8 770.9 318.9 773.2 L 318.9 773.2 L 318.9 773.2 Q 319.1 775.4 319.1 777.6 L 319.1 777.6 Z M 311.6 788.2 L 311.6 779.6 L 307.6 779.6 L 307.6 779.6 Q 306.3 779.6 304.9 779.8 L 304.9 779.8 L 304.9 779.8 Q 303.6 780.1 302.4 780.8 L 302.4 780.8 L 302.4 780.8 Q 301.2 781.4 300.4 782.7 L 300.4 782.7 L 300.4 782.7 Q 299.6 784 299.6 786 L 299.6 786 L 299.6 786 Q 299.6 789.1 301 790.5 L 301 790.5 L 301 790.5 Q 302.4 791.9 305.1 791.9 L 305.1 791.9 L 305.1 791.9 Q 307 791.9 308.7 790.9 L 308.7 790.9 L 308.7 790.9 Q 310.4 789.9 311.6 788.2 L 311.6 788.2 Z M 338.5 748.1 L 338.5 785.9 L 338.5 785.9 Q 338.5 788 339.1 789.2 L 339.1 789.2 L 339.1 789.2 Q 339.6 790.4 340.6 791 L 340.6 791 L 340.6 791 Q 341.6 791.6 342.9 791.8 L 342.9 791.8 L 342.9 791.8 Q 344.2 792 345.7 792 L 345.7 792 L 345.7 796.6 L 345.7 796.6 Q 344.9 796.8 344 796.8 L 344 796.8 L 344 796.8 Q 343.3 796.9 342.4 796.9 L 342.4 796.9 L 342.4 796.9 Q 341.4 796.9 340.5 796.9 L 340.5 796.9 L 340.5 796.9 Q 339.6 796.9 338.6 796.9 L 338.6 796.9 L 338.6 796.9 Q 337.7 796.8 336.9 796.7 L 336.9 796.7 L 336.9 796.7 Q 334.8 796.3 333.6 794.8 L 333.6 794.8 L 333.6 794.8 Q 332.4 793.4 331.8 791.6 L 331.8 791.6 L 331.8 791.6 Q 331.2 789.8 331 788.1 L 331 788.1 L 331 788.1 Q 330.9 786.4 330.9 785.5 L 330.9 785.5 L 330.9 784.8 L 330.9 748.1 L 338.5 748.1 Z M 361.2 748.1 L 361.2 785.9 L 361.2 785.9 Q 361.2 788 361.8 789.2 L 361.8 789.2 L 361.8 789.2 Q 362.3 790.4 363.3 791 L 363.3 791 L 363.3 791 Q 364.3 791.6 365.6 791.8 L 365.6 791.8 L 365.6 791.8 Q 366.9 792 368.4 792 L 368.4 792 L 368.4 796.6 L 368.4 796.6 Q 367.6 796.8 366.7 796.8 L 366.7 796.8 L 366.7 796.8 Q 366 796.9 365.1 796.9 L 365.1 796.9 L 365.1 796.9 Q 364.1 796.9 363.2 796.9 L 363.2 796.9 L 363.2 796.9 Q 362.3 796.9 361.3 796.9 L 361.3 796.9 L 361.3 796.9 Q 360.4 796.8 359.6 796.7 L 359.6 796.7 L 359.6 796.7 Q 357.5 796.3 356.3 794.8 L 356.3 794.8 L 356.3 794.8 Q 355.1 793.4 354.5 791.6 L 354.5 791.6 L 354.5 791.6 Q 353.9 789.8 353.7 788.1 L 353.7 788.1 L 353.7 788.1 Q 353.6 786.4 353.6 785.5 L 353.6 785.5 L 353.6 784.8 L 353.6 748.1 L 361.2 748.1 Z M 391.1 761 L 391.1 761 L 391.1 761 Q 395.4 761 398.6 762.7 L 398.6 762.7 L 398.6 762.7 Q 401.9 764.4 404 767.3 L 404 767.3 L 404 767.3 Q 406.1 770.1 407 773.9 L 407 773.9 L 407 773.9 Q 407.9 777.6 407.3 781.6 L 407.3 781.6 L 382.8 781.6 L 382.8 781.6 Q 382.8 783.6 383.6 785.3 L 383.6 785.3 L 383.6 785.3 Q 384.3 786.9 385.6 788.2 L 385.6 788.2 L 385.6 788.2 Q 386.9 789.4 388.7 790.1 L 388.7 790.1 L 388.7 790.1 Q 390.4 790.8 392.5 790.8 L 392.5 790.8 L 392.5 790.8 Q 393.2 790.8 394.2 790.6 L 394.2 790.6 L 394.2 790.6 Q 395.3 790.4 396.4 790 L 396.4 790 L 396.4 790 Q 397.6 789.6 398.7 789 L 398.7 789 L 398.7 789 Q 399.9 788.4 400.8 787.5 L 400.8 787.5 L 403.5 791.7 L 403.5 791.7 Q 401.4 794.3 398.7 795.6 L 398.7 795.6 L 398.7 795.6 Q 395.9 796.9 391.7 796.9 L 391.7 796.9 L 391.7 796.9 Q 388.3 796.9 385.3 795.5 L 385.3 795.5 L 385.3 795.5 Q 382.3 794.1 380.1 791.6 L 380.1 791.6 L 380.1 791.6 Q 378 789.2 376.8 785.9 L 376.8 785.9 L 376.8 785.9 Q 375.5 782.7 375.5 778.9 L 375.5 778.9 L 375.5 778.9 Q 375.5 775.3 376.8 772 L 376.8 772 L 376.8 772 Q 378 768.7 380.1 766.3 L 380.1 766.3 L 380.1 766.3 Q 382.2 763.8 385.1 762.4 L 385.1 762.4 L 385.1 762.4 Q 387.9 761 391.1 761 Z M 383.1 776.1 L 400.3 776.1 L 400.3 776.1 Q 400.3 774.4 399.7 772.8 L 399.7 772.8 L 399.7 772.8 Q 399.1 771.1 398 769.8 L 398 769.8 L 398 769.8 Q 396.9 768.5 395.3 767.7 L 395.3 767.7 L 395.3 767.7 Q 393.8 766.9 391.9 766.9 L 391.9 766.9 L 391.9 766.9 Q 390 766.9 388.4 767.6 L 388.4 767.6 L 388.4 767.6 Q 386.8 768.4 385.6 769.6 L 385.6 769.6 L 385.6 769.6 Q 384.4 770.9 383.7 772.6 L 383.7 772.6 L 383.7 772.6 Q 383.1 774.3 383.1 776.1 L 383.1 776.1 Z M 437.7 761.1 L 437.7 769 L 437.7 769 Q 435.9 768.5 433.4 768.4 L 433.4 768.4 L 433.4 768.4 Q 431.2 768.4 429 769 L 429 769 L 429 769 Q 426.8 769.5 425.4 770.8 L 425.4 770.8 L 425.4 784.1 L 425.4 784.3 L 425.4 796.6 L 417.9 796.6 L 417.9 761.4 L 424.6 761.4 L 425.4 765 L 425.4 765 Q 426.4 764.1 427.4 763.3 L 427.4 763.3 L 427.4 763.3 Q 428.4 762.6 429.8 762.1 L 429.8 762.1 L 429.8 762.1 Q 431.2 761.6 433.1 761.4 L 433.1 761.4 L 433.1 761.4 Q 434.9 761.1 437.7 761.1 L 437.7 761.1 Z M 472.1 761.4 L 479.8 761.4 L 479.8 761.4 Q 476.3 770.6 473.6 777.7 L 473.6 777.7 L 473.6 777.7 Q 470.9 784.8 468.9 790.1 L 468.9 790.1 L 468.9 790.1 Q 466.9 795.4 465.4 799.1 L 465.4 799.1 L 465.4 799.1 Q 463.9 802.8 462.6 805.3 L 462.6 805.3 L 462.6 805.3 Q 461.3 807.8 460.2 809.2 L 460.2 809.2 L 460.2 809.2 Q 459.1 810.6 457.9 811.3 L 457.9 811.3 L 457.9 811.3 Q 456.7 812.1 455.3 812.2 L 455.3 812.2 L 455.3 812.2 Q 453.9 812.4 452.1 812.4 L 452.1 812.4 L 452.1 812.4 Q 451.5 812.4 450.8 812.2 L 450.8 812.2 L 450.8 812.2 Q 450 812.1 449.3 811.9 L 449.3 811.9 L 449.3 811.9 Q 448.6 811.6 448 811.4 L 448 811.4 L 448 811.4 Q 447.4 811.2 447.3 811.1 L 447.3 811.1 L 447.3 811.1 Q 447.5 810 447.8 809 L 447.8 809 L 447.8 809 Q 447.9 808.1 448.2 807.4 L 448.2 807.4 L 448.2 807.4 Q 448.4 806.6 448.5 806.3 L 448.5 806.3 L 448.5 806.3 Q 449 806.3 450 806.6 L 450 806.6 L 450 806.6 Q 451.1 806.9 451.6 806.9 L 451.6 806.9 L 451.6 806.9 Q 452.6 806.9 453.3 806.8 L 453.3 806.8 L 453.3 806.8 Q 454.1 806.7 454.8 806.2 L 454.8 806.2 L 454.8 806.2 Q 455.4 805.8 455.9 804.9 L 455.9 804.9 L 455.9 804.9 Q 456.5 803.9 457.2 802.3 L 457.2 802.3 L 459.6 796.6 L 445.1 761.4 L 452.7 761.4 L 463 788.5 L 472.1 761.4 Z" fill="url(#editing-gradient-gradient)"></path></g></g><style>text {
  font-size: 64px;
  font-family: Arial Black;
  dominant-baseline: central;
  text-anchor: middle;
}</style></svg>